<svg width="25" height="24" viewBox="0 0 25 24" fill="none" xmlns="http://www.w3.org/2000/svg">
<g id="expand_circle_right">
<mask id="mask0_2194_1408" style="mask-type:alpha" maskUnits="userSpaceOnUse" x="0" y="0" width="25" height="24">
<rect id="Bounding box" x="0.5" width="24" height="24" fill="#D9D9D9"/>
</mask>
<g mask="url(#mask0_2194_1408)">
<path id="expand_circle_right_2" d="M13.175 12L10.8 14.375C10.6167 14.5583 10.525 14.7875 10.525 15.0625C10.525 15.3375 10.6167 15.575 10.8 15.775C11 15.975 11.2375 16.075 11.5125 16.075C11.7875 16.075 12.025 15.975 12.225 15.775L15.3 12.7C15.5 12.5 15.6 12.2667 15.6 12C15.6 11.7333 15.5 11.5 15.3 11.3L12.2 8.2C12 8 11.7667 7.90417 11.5 7.9125C11.2333 7.92083 11 8.025 10.8 8.225C10.6167 8.425 10.5208 8.65833 10.5125 8.925C10.5042 9.19167 10.6 9.425 10.8 9.625L13.175 12ZM12.5 22C11.1167 22 9.81667 21.7375 8.6 21.2125C7.38333 20.6875 6.325 19.975 5.425 19.075C4.525 18.175 3.8125 17.1167 3.2875 15.9C2.7625 14.6833 2.5 13.3833 2.5 12C2.5 10.6167 2.7625 9.31667 3.2875 8.1C3.8125 6.88333 4.525 5.825 5.425 4.925C6.325 4.025 7.38333 3.3125 8.6 2.7875C9.81667 2.2625 11.1167 2 12.5 2C13.8833 2 15.1833 2.2625 16.4 2.7875C17.6167 3.3125 18.675 4.025 19.575 4.925C20.475 5.825 21.1875 6.88333 21.7125 8.1C22.2375 9.31667 22.5 10.6167 22.5 12C22.5 13.3833 22.2375 14.6833 21.7125 15.9C21.1875 17.1167 20.475 18.175 19.575 19.075C18.675 19.975 17.6167 20.6875 16.4 21.2125C15.1833 21.7375 13.8833 22 12.5 22Z" fill="#136DF2"/>
</g>
</g>
</svg>
